<svg data-v-e114f776="" xmlns="http://www.w3.org/2000/svg" width="25" height="25" viewBox="0 0 60.728 55.659"><path d="M927.424 1353.717a2.494 2.494 0 0 1-1.472-.479c-1.18-.857-28.891-21.2-28.891-37.3 0-10.544 7.31-16.927 14.532-17.783 5.221-.62 11.838 1.558 15.832 8.941 3.991-7.385 10.607-9.557 15.831-8.941 7.221.856 14.533 7.239 14.533 17.783 0 16.1-27.712 36.439-28.892 37.3a2.493 2.493 0 0 1-1.473.479zm-14.088-50.657a9.763 9.763 0 0 0-1.154.069c-5.027.595-10.116 5.187-10.116 12.812 0 10.577 17.1 25.84 25.359 32.15 8.254-6.309 25.359-21.573 25.359-32.15 0-7.625-5.089-12.217-10.117-12.812-4.693-.557-10.535 2.213-12.809 11.667a2.5 2.5 0 0 1-4.866 0c-2.092-8.696-7.192-11.736-11.656-11.736z" transform="translate(-897.06 -1298.058)" style="fill: rgb(251, 185, 5);"></path></svg>